<svg xmlns="http://www.w3.org/2000/svg" viewBox="0 0 300 400"><g transform="translate(0,-652.36216)"><g><ellipse ry="18.317427" rx="23.672094" cy="679.60535" cx="239.37206" style="fill:#004900;stroke-width:30;stroke-linecap:round;stroke-linejoin:round" /><ellipse ry="18.317427" rx="23.672094" style="fill:#004900;stroke-width:30;stroke-linecap:round;stroke-linejoin:round" cx="238.20503" cy="822.87726" /><ellipse ry="24.333958" rx="31.447418" style="fill:#004900;stroke-width:30;stroke-linecap:round;stroke-linejoin:round" cx="242.50696" cy="745.21582" /><ellipse ry="18.317427" rx="23.672094" style="fill:#004900;stroke-width:30;stroke-linecap:round;stroke-linejoin:round" cx="267.15402" cy="679.60535" /><path d="m 253.30864,812.34285 0,-129.17308" style="fill:none;fill-rule:evenodd;stroke:#004900;stroke-width:52.75361252;stroke-linecap:round" /><ellipse cy="682.5849" cx="253.30867" style="fill:#ffffff;stroke-width:10;stroke-linecap:round;stroke-linejoin:round" rx="8.6247368" ry="8.3422585" /><path d="m 73.60657,743.8728 63.17505,-0.0606" style="fill:none;fill-rule:evenodd;stroke:#004900;stroke-width:34.7848587;stroke-linecap:round" /><path d="M 120.32426,780.51518 70.301832,767.60936" style="fill:none;fill-rule:evenodd;stroke:#004900;stroke-width:46.37981033;stroke-linecap:round" /><path d="M 66.18363,814.60579 170.64531,728.25421" style="fill:none;fill-rule:evenodd;stroke:#004900;stroke-width:45;stroke-linecap:round" /><ellipse style="fill:#004900;stroke-width:30;stroke-linecap:round;stroke-linejoin:round" cx="33.681141" cy="679.60535" rx="23.672094" ry="18.317427" /><ellipse cy="679.60535" cx="61.463093" style="fill:#004900;stroke-width:30;stroke-linecap:round;stroke-linejoin:round" rx="23.672094" ry="18.317427" /><ellipse cy="822.87726" cx="32.514114" style="fill:#004900;stroke-width:30;stroke-linecap:round;stroke-linejoin:round" rx="23.672094" ry="18.317427" /><path style="fill:none;fill-rule:evenodd;stroke:#004900;stroke-width:52.75361252;stroke-linecap:round" d="m 47.617723,812.34285 0,-129.17308" /><ellipse ry="8.3422585" rx="8.6247368" style="fill:#ffffff;stroke-width:10;stroke-linecap:round;stroke-linejoin:round" cx="47.61776" cy="682.5849" /><ellipse style="fill:#004900;stroke-width:30;stroke-linecap:round;stroke-linejoin:round" cx="63.019115" cy="822.87726" rx="23.672094" ry="18.317427" /><ellipse style="fill:#004900;stroke-width:30;stroke-linecap:round;stroke-linejoin:round" cx="58.561592" cy="745.21582" rx="31.447418" ry="24.333958" /><ellipse cy="745.21582" cx="36.816036" style="fill:#004900;stroke-width:30;stroke-linecap:round;stroke-linejoin:round" rx="31.447418" ry="24.333958" /><path style="fill:none;fill-rule:evenodd;stroke:#ffffff;stroke-width:12;stroke-linecap:round" d="m 47.617723,684.68605 0,36.2968" /><path d="m 47.617713,772.7737 0,44.82497" style="fill:none;fill-rule:evenodd;stroke:#ffffff;stroke-width:12;stroke-linecap:round" /><path d="m 38.643557,757.67222 c 4.055553,-6.17768 14.924169,-5.91141 18.337365,0" style="fill:none;fill-rule:evenodd;stroke:#ffffff;stroke-width:10;stroke-linecap:round;stroke-linejoin:round" /><path style="fill:none;fill-rule:evenodd;stroke:#ffffff;stroke-width:10;stroke-linecap:round;stroke-linejoin:round" d="m 38.643557,740.13267 c 4.055553,-6.17769 14.924169,-5.91142 18.337365,0" /><path style="fill:none;fill-rule:evenodd;stroke:#004900;stroke-width:34.7848587;stroke-linecap:round" d="m 226.62683,743.8728 -63.17505,-0.0606" /><ellipse ry="18.317427" rx="23.672094" cy="822.87726" cx="268.71002" style="fill:#004900;stroke-width:30;stroke-linecap:round;stroke-linejoin:round" /><path style="fill:none;fill-rule:evenodd;stroke:#004900;stroke-width:45;stroke-linecap:round" d="M 234.04977,814.60579 129.58809,728.25421" /><ellipse ry="24.333958" rx="31.447418" cy="745.21582" cx="264.2525" style="fill:#004900;stroke-width:30;stroke-linecap:round;stroke-linejoin:round" /><rect ry="2.7680101" rx="1.9463779" y="708.35883" x="122.3024" height="74.040909" width="55.249744" style="fill:#004900;stroke-width:40;stroke-linecap:round;stroke-linejoin:round" /><path d="m 115.50532,764.14365 6.98247,6.83299" style="fill:none;fill-rule:evenodd;stroke:#ffffff;stroke-width:12;stroke-linecap:round" /><path d="m 136.49462,753.27628 13.38324,-10.62367 0.0495,-14.82294" style="fill:none;fill-rule:evenodd;stroke:#ffffff;stroke-width:12;stroke-linecap:round" /><path style="fill:none;fill-rule:evenodd;stroke:#004900;stroke-width:46.37981033;stroke-linecap:round" d="m 179.90914,780.51518 50.02243,-12.90582" /><path d="m 253.30864,684.68605 0,36.2968" style="fill:none;fill-rule:evenodd;stroke:#ffffff;stroke-width:12;stroke-linecap:round" /><path style="fill:none;fill-rule:evenodd;stroke:#ffffff;stroke-width:12;stroke-linecap:round" d="M 230.51372,808.24494 197.53171,781.18239" /><path style="fill:none;fill-rule:evenodd;stroke:#ffffff;stroke-width:12;stroke-linecap:round" d="m 253.30863,772.7737 0,44.82497" /><path style="fill:none;fill-rule:evenodd;stroke:#ffffff;stroke-width:10;stroke-linecap:round;stroke-linejoin:round" d="m 244.33447,757.67222 c 4.05555,-6.17768 14.92417,-5.91141 18.33737,0" /><path d="m 244.33447,740.13267 c 4.05555,-6.17769 14.92417,-5.91142 18.33737,0" style="fill:none;fill-rule:evenodd;stroke:#ffffff;stroke-width:10;stroke-linecap:round;stroke-linejoin:round" /><path style="fill:none;fill-rule:evenodd;stroke:#ffffff;stroke-width:12;stroke-linecap:round" d="m 184.65325,764.06883 -6.83281,6.98263" /><path d="M 216.4052,761.71789 202.89881,750.89867" style="fill:none;fill-rule:evenodd;stroke:#ffffff;stroke-width:12;stroke-linecap:round" /><path style="fill:none;fill-rule:evenodd;stroke:#ffffff;stroke-width:12;stroke-linecap:round" d="m 163.73878,753.27628 -13.38324,-10.62367 -0.0494,-14.82294" /><path d="m 69.71968,808.24494 32.98201,-27.06255" style="fill:none;fill-rule:evenodd;stroke:#ffffff;stroke-width:12;stroke-linecap:round" /><path style="fill:none;fill-rule:evenodd;stroke:#ffffff;stroke-width:12;stroke-linecap:round" d="M 83.828203,761.71789 97.334592,750.89867" /></g><g transform="matrix(1,0,0,-1,0,1704.7746)"><ellipse style="fill:#004900;stroke-width:30;stroke-linecap:round;stroke-linejoin:round" cx="239.37206" cy="679.60535" rx="23.672094" ry="18.317427" /><ellipse cy="822.87726" cx="238.20503" style="fill:#004900;stroke-width:30;stroke-linecap:round;stroke-linejoin:round" rx="23.672094" ry="18.317427" /><ellipse cy="745.21582" cx="242.50696" style="fill:#004900;stroke-width:30;stroke-linecap:round;stroke-linejoin:round" rx="31.447418" ry="24.333958" /><ellipse cy="679.60535" cx="267.15402" style="fill:#004900;stroke-width:30;stroke-linecap:round;stroke-linejoin:round" rx="23.672094" ry="18.317427" /><path style="fill:none;fill-rule:evenodd;stroke:#004900;stroke-width:52.75361252;stroke-linecap:round" d="m 253.30864,812.34285 0,-129.17308" /><ellipse ry="8.3422585" rx="8.6247368" style="fill:#ffffff;stroke-width:10;stroke-linecap:round;stroke-linejoin:round" cx="253.30867" cy="682.5849" /><path style="fill:none;fill-rule:evenodd;stroke:#004900;stroke-width:34.7848587;stroke-linecap:round" d="m 73.60657,743.8728 63.17505,-0.0606" /><path style="fill:none;fill-rule:evenodd;stroke:#004900;stroke-width:46.37981033;stroke-linecap:round" d="M 120.32426,780.51518 70.301832,767.60936" /><path style="fill:none;fill-rule:evenodd;stroke:#004900;stroke-width:45;stroke-linecap:round" d="M 66.18363,814.60579 170.64531,728.25421" /><ellipse ry="18.317427" rx="23.672094" cy="679.60535" cx="33.681141" style="fill:#004900;stroke-width:30;stroke-linecap:round;stroke-linejoin:round" /><ellipse ry="18.317427" rx="23.672094" style="fill:#004900;stroke-width:30;stroke-linecap:round;stroke-linejoin:round" cx="61.463093" cy="679.60535" /><ellipse ry="18.317427" rx="23.672094" style="fill:#004900;stroke-width:30;stroke-linecap:round;stroke-linejoin:round" cx="32.514114" cy="822.87726" /><path d="m 47.617723,812.34285 0,-129.17308" style="fill:none;fill-rule:evenodd;stroke:#004900;stroke-width:52.75361252;stroke-linecap:round" /><ellipse cy="682.5849" cx="47.61776" style="fill:#ffffff;stroke-width:10;stroke-linecap:round;stroke-linejoin:round" rx="8.6247368" ry="8.3422585" /><ellipse ry="18.317427" rx="23.672094" cy="822.87726" cx="63.019115" style="fill:#004900;stroke-width:30;stroke-linecap:round;stroke-linejoin:round" /><ellipse ry="24.333958" rx="31.447418" cy="745.21582" cx="58.561592" style="fill:#004900;stroke-width:30;stroke-linecap:round;stroke-linejoin:round" /><ellipse ry="24.333958" rx="31.447418" style="fill:#004900;stroke-width:30;stroke-linecap:round;stroke-linejoin:round" cx="36.816036" cy="745.21582" /><path d="m 47.617723,684.68605 0,36.2968" style="fill:none;fill-rule:evenodd;stroke:#ffffff;stroke-width:12;stroke-linecap:round" /><path style="fill:none;fill-rule:evenodd;stroke:#ffffff;stroke-width:12;stroke-linecap:round" d="m 47.617713,772.7737 0,44.82497" /><path style="fill:none;fill-rule:evenodd;stroke:#ffffff;stroke-width:10;stroke-linecap:round;stroke-linejoin:round" d="m 38.643557,757.67222 c 4.055553,-6.17768 14.924169,-5.91141 18.337365,0" /><path d="m 38.643557,740.13267 c 4.055553,-6.17769 14.924169,-5.91142 18.337365,0" style="fill:none;fill-rule:evenodd;stroke:#ffffff;stroke-width:10;stroke-linecap:round;stroke-linejoin:round" /><path d="m 226.62683,743.8728 -63.17505,-0.0606" style="fill:none;fill-rule:evenodd;stroke:#004900;stroke-width:34.7848587;stroke-linecap:round" /><ellipse style="fill:#004900;stroke-width:30;stroke-linecap:round;stroke-linejoin:round" cx="268.71002" cy="822.87726" rx="23.672094" ry="18.317427" /><path d="M 234.04977,814.60579 129.58809,728.25421" style="fill:none;fill-rule:evenodd;stroke:#004900;stroke-width:45;stroke-linecap:round" /><ellipse style="fill:#004900;stroke-width:30;stroke-linecap:round;stroke-linejoin:round" cx="264.2525" cy="745.21582" rx="31.447418" ry="24.333958" /><rect style="fill:#004900;stroke-width:40;stroke-linecap:round;stroke-linejoin:round" width="55.249744" height="74.040909" x="122.3024" y="708.35883" rx="1.9463779" ry="2.7680101" /><path style="fill:none;fill-rule:evenodd;stroke:#ffffff;stroke-width:12;stroke-linecap:round" d="m 115.50532,764.14365 6.98247,6.83299" /><path style="fill:none;fill-rule:evenodd;stroke:#ffffff;stroke-width:12;stroke-linecap:round" d="m 136.49462,753.27628 13.38324,-10.62367 0.0495,-14.82294" /><path d="m 179.90914,780.51518 50.02243,-12.90582" style="fill:none;fill-rule:evenodd;stroke:#004900;stroke-width:46.37981033;stroke-linecap:round" /><path style="fill:none;fill-rule:evenodd;stroke:#ffffff;stroke-width:12;stroke-linecap:round" d="m 253.30864,684.68605 0,36.2968" /><path d="M 230.51372,808.24494 197.53171,781.18239" style="fill:none;fill-rule:evenodd;stroke:#ffffff;stroke-width:12;stroke-linecap:round" /><path d="m 253.30863,772.7737 0,44.82497" style="fill:none;fill-rule:evenodd;stroke:#ffffff;stroke-width:12;stroke-linecap:round" /><path d="m 244.33447,757.67222 c 4.05555,-6.17768 14.92417,-5.91141 18.33737,0" style="fill:none;fill-rule:evenodd;stroke:#ffffff;stroke-width:10;stroke-linecap:round;stroke-linejoin:round" /><path style="fill:none;fill-rule:evenodd;stroke:#ffffff;stroke-width:10;stroke-linecap:round;stroke-linejoin:round" d="m 244.33447,740.13267 c 4.05555,-6.17769 14.92417,-5.91142 18.33737,0" /><path d="m 184.65325,764.06883 -6.83281,6.98263" style="fill:none;fill-rule:evenodd;stroke:#ffffff;stroke-width:12;stroke-linecap:round" /><path style="fill:none;fill-rule:evenodd;stroke:#ffffff;stroke-width:12;stroke-linecap:round" d="M 216.4052,761.71789 202.89881,750.89867" /><path d="m 163.73878,753.27628 -13.38324,-10.62367 -0.0494,-14.82294" style="fill:none;fill-rule:evenodd;stroke:#ffffff;stroke-width:12;stroke-linecap:round" /><path style="fill:none;fill-rule:evenodd;stroke:#ffffff;stroke-width:12;stroke-linecap:round" d="m 69.71968,808.24494 32.98201,-27.06255" /><path d="M 83.828203,761.71789 97.334592,750.89867" style="fill:none;fill-rule:evenodd;stroke:#ffffff;stroke-width:12;stroke-linecap:round" /></g></g></svg>